<mxfile host="app.diagrams.net" modified="2020-11-29T13:34:48.025Z" agent="5.0 (Macintosh; Intel Mac OS X 10_15_0) AppleWebKit/537.36 (KHTML, like Gecko) Chrome/86.0.4240.198 Safari/537.36" etag="RI31UNnZ-7i94luJ2SK_" version="13.10.4" type="github">
  <diagram id="rmJ-V9XCcDl1ALRttNvQ" name="Page-1">
    <mxGraphModel dx="2066" dy="1046" grid="1" gridSize="10" guides="1" tooltips="1" connect="1" arrows="1" fold="1" page="1" pageScale="1" pageWidth="827" pageHeight="1169" math="0" shadow="0">
      <root>
        <mxCell id="0" />
        <mxCell id="1" parent="0" />
        <mxCell id="ryLXldEkGT0z4X6GuvWk-1" value="" style="shape=cube;whiteSpace=wrap;html=1;boundedLbl=1;backgroundOutline=1;darkOpacity=0.05;darkOpacity2=0.1;" vertex="1" parent="1">
          <mxGeometry x="300" y="310" width="120" height="80" as="geometry" />
        </mxCell>
        <mxCell id="ryLXldEkGT0z4X6GuvWk-2" value="" style="triangle;whiteSpace=wrap;html=1;" vertex="1" parent="1">
          <mxGeometry x="370" y="620" width="60" height="80" as="geometry" />
        </mxCell>
        <mxCell id="ryLXldEkGT0z4X6GuvWk-3" value="" style="shape=process;whiteSpace=wrap;html=1;backgroundOutline=1;" vertex="1" parent="1">
          <mxGeometry x="430" y="180" width="120" height="60" as="geometry" />
        </mxCell>
        <mxCell id="ryLXldEkGT0z4X6GuvWk-4" value="" style="ellipse;whiteSpace=wrap;html=1;aspect=fixed;" vertex="1" parent="1">
          <mxGeometry x="630" y="400" width="80" height="80" as="geometry" />
        </mxCell>
        <mxCell id="ryLXldEkGT0z4X6GuvWk-5" value="" style="shape=card;whiteSpace=wrap;html=1;" vertex="1" parent="1">
          <mxGeometry x="130" y="480" width="80" height="100" as="geometry" />
        </mxCell>
        <mxCell id="ryLXldEkGT0z4X6GuvWk-6" value="" style="triangle;whiteSpace=wrap;html=1;" vertex="1" parent="1">
          <mxGeometry x="180" y="120" width="60" height="80" as="geometry" />
        </mxCell>
        <mxCell id="ryLXldEkGT0z4X6GuvWk-7" value="" style="whiteSpace=wrap;html=1;aspect=fixed;" vertex="1" parent="1">
          <mxGeometry x="630" y="70" width="80" height="80" as="geometry" />
        </mxCell>
      </root>
    </mxGraphModel>
  </diagram>
</mxfile>
